# AST/ASF file generated using VICON BodyLanguage
# -----------------------------------------------
:version 1.10
:name VICON
:units
  mass 1.0
  length 0.45
  angle deg
:documentation
   .ast/.asf automatically generated from VICON data using
   VICON BodyBuilder and BodyLanguage model FoxedUp or BRILLIANT.MOD
:root
   order TX TY TZ RX RY RZ
   axis XYZ
   position 0 0 0  
   orientation 0 0 0 
:bonedata
  begin
     id 1 
     name lhipjoint
     direction 0.521689 -0.742065 0.420928 
     length 2.47002 
     axis 0 0 0  XYZ
  end
  begin
     id 2 
     name lfemur
     direction 0.34202 -0.939693 0  
     length 7.24654  
     axis 0 0 20  XYZ
    dof rx ry rz
    limits (-160.0 20.0)
           (-70.0 70.0)
           (-60.0 70.0)
  end
  begin
     id 3 
     name ltibia
     direction 0.34202 -0.939693 0   
     length 8.04849   
     axis 0 0 20   XYZ
    dof rx
    limits (-10.0 170.0)
  end
  begin
     id 4 
     name lfoot
     direction 0.0745411 -0.2048 0.975961   
     length 1.72367   
     axis -90 7.62852e-016 20   XYZ
    dof rx rz
    limits (-45.0 90.0)
           (-70.0 20.0)
  end
  begin
     id 5 
     name ltoes
     direction 1.53556e-011 -4.21901e-011 1   
     length 0.87311   
     axis -90 7.62852e-016 20   XYZ
    dof rx
    limits (-90.0 20.0)
  end
  begin
     id 6 
     name rhipjoint
     direction -0.52849 -0.738415 0.418857   
     length 2.48223  
     axis 0 0 0  XYZ 
  end
  begin
     id 7 
     name rfemur
     direction -0.34202 -0.939693 0   
     length 7.15571   
     axis 0 0 -20   XYZ
    dof rx ry rz
    limits (-160.0 20.0)
           (-70.0 70.0)
           (-70.0 60.0)
  end
  begin
     id 8 
     name rtibia
     direction -0.34202 -0.939693 0   
     length 7.81659   
     axis 0 0 -20   XYZ
    dof rx
    limits (-10.0 170.0)
 end
 begin
     id 9 
     name rfoot
     direction -0.0917348 -0.252039 0.963359   
     length 1.84382  
     axis -90 -7.62852e-016 -20   XYZ
    dof rx rz
    limits (-45.0 90.0)
           (-20.0 70.0)
  end
  begin
     id 10 
     name rtoes
     direction -1.53551e-011 -4.21879e-011 1   
     length 0.927771   
     axis -90 -7.62852e-016 -20   XYZ
    dof rx
    limits (-90.0 20.0)
  end
  begin
     id 11 
     name lowerback
     direction 0.00583058 0.999822 0.0179296   
     length 2.1429   
     axis 0 0 0   XYZ
    dof rx ry rz
    limits (-20.0 45.0)
           (-30.0 30.0)
           (-30.0 30.0)
  end
  begin
     id 12 
     name upperback
     direction -0.0137999 0.999752 -0.0175071   
     length 2.14252   
     axis 0 0 0   XYZ
    dof rx ry rz
    limits (-20.0 45.0)
           (-30.0 30.0)
           (-30.0 30.0)
  end
  begin
     id 13 
     name thorax
     direction -0.0158036 0.99955 -0.0254909   
     length 2.1383   
     axis 0 0 0   XYZ
    dof rx ry rz
    limits (-20.0 45.0)
           (-30.0 30.0)
           (-30.0 30.0)
  end
  begin
     id 14 
     name lowerneck
     direction -0.0101179 0.999403 -0.0330262   
     length 1.65808   
     axis 0 0 0   XYZ
    dof rx ry rz
    limits (-20.0 45.0)
           (-30.0 30.0)
           (-30.0 30.0)
  end
  begin
     id 15 
     name upperneck
     direction 0.0497734 0.995978 -0.074501   
     length 1.5897   
     axis 0 0 0   XYZ
    dof rx ry rz
    limits (-20.0 45.0)
           (-30.0 30.0)
           (-30.0 30.0)
  end
  begin
     id 16
     name head
     direction 0.0189524 0.999519 -0.0245438  
     length 1.74024  
     axis 0 0 0   XYZ
    dof rx ry rz
    limits (-20.0 45.0)
           (-30.0 30.0)
           (-30.0 30.0)
  end
  begin
     id 17 
     name lclavicle
     direction 0.945604 0.324422 0.0241537  
     length 3.59089  
     axis 0 0 0   XYZ
    dof ry rz
    limits (-20.0 10.0)
           (0.0 20.0)
  end
  begin
     id 18 
     name lhumerus
     direction 1 -4.48964e-011 -2.63524e-027   
     length 5.2391   
     axis 180 -30 -90   XYZ
    dof rx ry rz
    limits (-60.0 90.0)
           (-90.0 90.0)
           (-90.0 90.0)
  end
  begin
     id 19
     name lradius
     direction 1 -4.48969e-011 3.86978e-028   
     length 3.31467   
     axis 180 -30 -90   XYZ
    dof rx
    limits (-10.0 170.0)
  end
  begin
     id 20
     name lwrist
     direction 1 -4.48963e-011 7.20928e-028   
     length 1.65734   
     axis -5.52449e-016 90 90   XYZ
    dof ry
    limits (-180.0 0.0)
 end
  begin
     id 21 
     name lhand
     direction 1 -4.48964e-011 1.44186e-027   
     length 0.9659   
     axis -9.20027e-016 90 90   XYZ
    dof rx rz
    limits (-90.0 90.0)
           (-45.0 45.0)
  end
  begin
     id 22 
     name lfingers
     direction 1 -4.48965e-011 2.88371e-027   
     length 0.778733   
     axis -1.84005e-015 90 90   XYZ
    dof rx
    limits (0.0 90.0)
  end
  begin
     id 23
     name lthumb
     direction 0.707107 -6.34931e-011 0.707107   
     length 1.11811   
     axis -90 45 2.85299e-015   XYZ
    dof rx rz
    limits (-45.0 45.0)
           (-45.0 45.0)
  end
  begin
     id 24 
     name rclavicle
     direction -0.923762 0.370785 0.0958234   
     length 3.54196  
     axis 0 0 0   XYZ 
    dof ry rz
    limits (-10.0 20.0)
           (-20.0 0.0)
  end
  begin
     id 25 
     name rhumerus
     direction -1 -4.48966e-011 1.18702e-017  
     length 5.30252   
     axis 180 30 90   XYZ
    dof rx ry rz
    limits (-90.0 60.0)
           (-90.0 90.0)
           (-90.0 90.0)
  end
  begin
     id 26 
     name rradius
     direction -1 -4.48966e-011 4.46736e-027   
     length 3.67875   
     axis 180 30 90   XYZ
    dof rx
    limits (-10.0 170.0)
  end
  begin
     id 27 
     name rwrist
     direction -1 -4.48966e-011 7.20928e-028   
     length 1.83937   
     axis -5.52449e-016 -90 -90   XYZ
    dof ry
    limits (-180.0 0.0)
  end
  begin
     id 28
     name rhand
     direction -1 -4.48973e-011 1.44186e-027   
     length 0.594811   
     axis -9.20027e-016 -90 -90   XYZ
    dof rx rz
    limits (-90.0 90.0)
           (-45.0 45.0)
  end
  begin
     id 29
     name rfingers
     direction -1 -4.48963e-011 2.88371e-027   
     length 0.479552   
     axis -1.84005e-015 -90 -90   XYZ
    dof rx
    limits (0.0 90.0)
  end
  begin
     id 30
     name rthumb
     direction -0.707107 -6.34932e-011 0.707107   
     length 0.688544   
     axis -90 -45 -2.85299e-015   XYZ
    dof rx rz
    limits (-45.0 45.0)
           (-45.0 45.0)
  end
:hierarchy
  begin
    root lhipjoint rhipjoint lowerback
    lhipjoint lfemur
    lfemur ltibia
    ltibia lfoot
    lfoot ltoes
    rhipjoint rfemur
    rfemur rtibia
    rtibia rfoot
    rfoot rtoes
    lowerback upperback
    upperback thorax
    thorax lowerneck lclavicle rclavicle
    lowerneck upperneck
    upperneck head
    lclavicle lhumerus
    lhumerus lradius
    lradius lwrist
    lwrist lhand lthumb
    lhand lfingers
    rclavicle rhumerus
    rhumerus rradius
    rradius rwrist
    rwrist rhand rthumb
    rhand rfingers
  end

#!OML:ASF E:\acrobat2\Project_11_07_03\Capture day 1\Session 1\Acrobat.ASF
:FULLY-SPECIFIED
:DEGREES
834
root 13.4423 15.0462 3.83176 -423.525 -2.54947 -185.357
lowerback 12.4041 0.740128 -2.58486
upperback 5.31943 0.441722 1.0058
thorax -1.41267 0.0841425 2.44638
lowerneck -6.18296 -1.04523 0.0755592
upperneck -30.6015 -2.56681 2.54895
head -8.52822 -3.0689 1.23357
rclavicle -1.59028e-015 -1.59028e-015
rhumerus 80.74 -22.1688 -63.9299
rradius 32.006
rwrist -11.5599
rhand -44.6416 -72.2144
rfingers 7.12502
rthumb -17.4387 -258.548
lclavicle -1.59028e-015 -1.59028e-015
lhumerus 91.0048 12.5585 62.6238
lradius 23.5542
lwrist -0.00467158
lhand -54.629 -50.9455
lfingers 7.12502
lthumb -27.0253 -22.8591
rfemur -21.8509 6.91868 -17.8696
rtibia 3.98651
rfoot 328.678 -31.3654
rtoes 5.09911
lfemur 153.721 186.286 206.258
ltibia -2.27894
lfoot 328.769 9.0596
ltoes 44.2058
835
root 13.4121 14.8336 3.71972 -422.703 -2.71555 -184.934
lowerback 10.9653 0.480715 -2.64527
upperback 5.0032 0.16665 1.14589
thorax -0.945247 -0.0463944 2.65979
lowerneck -5.77755 -0.913306 -0.145579
upperneck -30.3544 -2.39539 2.41123
head -8.50836 -2.91452 1.21172
rclavicle -1.43125e-014 1.98785e-015
rhumerus 77.1164 -21.0201 -59.8517
rradius 35.0468
rwrist -15.3381
rhand -45.2531 -73.6572
rfingers 7.12502
rthumb -18.0272 -257.158
lclavicle -1.43125e-014 1.98785e-015
lhumerus 87.5084 13.3833 60.5778
lradius 26.8529
lwrist 2.73423
lhand -54.1782 -52.668
lfingers 7.12502
lthumb -26.5939 -24.5153
rfemur -21.7649 6.92528 -18.1786
rtibia 4.06759
rfoot 329.3 -30.7398
rtoes 3.49047
lfemur 154.492 188.439 207.473
ltibia -2.81768
lfoot 326.247 8.37045
ltoes 44.4663
836
root 13.3787 14.6409 3.61923 -422.229 -3.01475 -184.551
lowerback 9.78468 0.287956 -2.40823
upperback 4.76357 -0.0121677 1.24375
thorax -0.538975 -0.127623 2.64317
lowerneck -5.6208 -0.850834 -0.252951
upperneck -29.6403 -2.3029 2.27666
head -8.28035 -2.77094 1.1537
rclavicle -5.56597e-015 7.95139e-016
rhumerus 73.8759 -19.9422 -56.0448
rradius 37.3321
rwrist -17.0398
rhand -44.5012 -75.3566
rfingers 7.12502
rthumb -17.3037 -255.394
lclavicle -5.56597e-015 7.95139e-016
lhumerus 83.7375 14.068 57.3598
lradius 30.0575
lwrist 5.79319
lhand -53.6706 -53.1011
lfingers 7.12502
lthumb -26.108 -24.8757
rfemur -21.6246 6.50329 -18.1969
rtibia 4.43922
rfoot 330.452 -29.7174
rtoes 1.3682
lfemur 155.328 189.751 208.351
ltibia -3.0046
lfoot 324.911 7.76478
ltoes 44.4986
837
root 13.345 14.4693 3.53179 -422.117 -3.41827 -184.188
lowerback 8.92015 0.16035 -1.86522
upperback 4.57938 -0.10316 1.23823
thorax -0.252863 -0.160342 2.33604
lowerneck -5.58462 -0.846563 -0.267096
upperneck -28.7043 -2.26193 2.21974
head -7.9565 -2.65132 1.10053
rclavicle 1.31198e-014 4.77083e-015
rhumerus 71.1009 -18.8619 -53.2033
rradius 39.0359
rwrist -16.936
rhand -42.9374 -77.0317
rfingers 7.12502
rthumb -15.7981 -253.593
lclavicle 1.31198e-014 4.77083e-015
lhumerus 80.07 14.34 53.5489
lradius 32.7322
lwrist 8.56848
lhand -53.4684 -53.6884
lfingers 7.12502
lthumb -25.9144 -25.4346
rfemur -21.4304 5.80983 -18.0135
rtibia 5.05578
rfoot 332.009 -28.4135
rtoes -1.35545
lfemur 156.271 190.095 208.876
ltibia -2.88156
lfoot 324.9 7.37651
ltoes 44.1527
838
root 13.3145 14.3167 3.45633 -422.367 -3.88343 -183.853
lowerback 8.39418 0.0943678 -1.10266
upperback 4.44367 -0.117708 1.13228
thorax -0.106799 -0.151077 1.7961
lowerneck -5.64945 -0.892441 -0.337485
upperneck -27.6013 -2.23533 2.38459
head -7.55924 -2.54051 1.12708
rclavicle -1.63003e-014 1.09332e-014
rhumerus 68.7924 -17.7866 -51.5148
rradius 40.2819
rwrist -15.8905
rhand -41.2662 -78.1118
rfingers 7.12502
rthumb -14.1881 -252.393
lclavicle -1.63003e-014 1.09332e-014
lhumerus 76.9681 14.129 49.9173
lradius 34.5274
lwrist 10.7171
lhand -53.713 -54.4588
lfingers 7.12502
lthumb -26.1486 -26.2394
rfemur -21.1287 5.10082 -17.7279
rtibia 5.8107
rfoot 333.716 -26.9788
rtoes -4.35457
lfemur 157.329 189.74 209.168
ltibia -2.57392
lfoot 325.914 7.23327
ltoes 43.4043
839
root 13.2889 14.1832 3.39292 -422.848 -4.40685 -183.451
lowerback 8.06795 0.119745 -0.262629
upperback 4.33625 -0.0182993 0.970852
thorax -0.0431482 -0.0841961 1.14829
lowerneck -5.76142 -0.974112 -0.494757
upperneck -26.4856 -2.2295 2.7094
head -7.15305 -2.44723 1.22265
rclavicle -4.77083e-015 -5.1684e-015
rhumerus 66.9376 -16.7514 -51.0182
rradius 41.2263
rwrist -14.5271
rhand -40.0168 -78.7472
rfingers 7.12502
rthumb -12.9839 -251.677
lclavicle -4.77083e-015 -5.1684e-015
lhumerus 74.5206 13.4587 47.2494
lradius 35.717
lwrist 11.9059
lhand -54.2267 -55.1397
lfingers 7.12502
lthumb -26.6403 -26.9941
rfemur -20.9141 4.48964 -17.449
rtibia 6.67409
rfoot 335.498 -25.5428
rtoes -7.51653
lfemur 158.463 189.056 209.428
ltibia -2.22449
lfoot 327.311 7.25895
ltoes 42.3733
840
root 13.2711 14.0642 3.33604 -423.606 -4.98611 -182.863
lowerback 7.96565 0.279254 0.447346
upperback 4.29527 0.239677 0.83506
thorax -0.0308074 0.0565552 0.589389
lowerneck -5.85088 -1.07016 -0.718365
upperneck -25.5106 -2.25918 3.01936
head -6.80273 -2.37894 1.3311
rclavicle -7.55382e-015 -5.96354e-015
rhumerus 65.4556 -15.7733 -51.4586
rradius 42.0432
rwrist -13.3787
rhand -39.5887 -79.0111
rfingers 7.12502
rthumb -12.5712 -251.387
lclavicle -7.55382e-015 -5.96354e-015
lhumerus 72.8151 12.5095 45.9907
lradius 36.2918
lwrist 12.1133
lhand -54.7526 -55.9167
lfingers 7.12502
lthumb -27.1435 -27.8486
rfemur -20.7681 4.22875 -17.2112
rtibia 7.53272
rfoot 337.156 -24.1166
rtoes -10.2807
lfemur 159.849 188.492 209.72
ltibia -2.03052
lfoot 328.51 7.34501
ltoes 41.2278
